<?xml version="1.0" encoding="UTF-8" standalone="no"?>
<!-- Created with Inkscape (http://www.inkscape.org/) -->

<svg
   xmlns:dc="http://purl.org/dc/elements/1.1/"
   xmlns:cc="http://creativecommons.org/ns#"
   xmlns:rdf="http://www.w3.org/1999/02/22-rdf-syntax-ns#"
   xmlns:svg="http://www.w3.org/2000/svg"
   xmlns="http://www.w3.org/2000/svg"
   xmlns:sodipodi="http://sodipodi.sourceforge.net/DTD/sodipodi-0.dtd"
   xmlns:inkscape="http://www.inkscape.org/namespaces/inkscape"
   width="49.691002mm"
   height="37.268002mm"
   viewBox="0 0 49.691001 37.268001"
   version="1.1"
   id="svg8"
   inkscape:version="0.92.4 (5da689c313, 2019-01-14)"
   sodipodi:docname="emain-envelope-dark.svg">
  <defs
     id="defs2" />
  <sodipodi:namedview
     id="base"
     pagecolor="#ffffff"
     bordercolor="#666666"
     borderopacity="1.0"
     inkscape:pageopacity="0.0"
     inkscape:pageshadow="2"
     inkscape:zoom="0.7"
     inkscape:cx="-203.68675"
     inkscape:cy="242.19963"
     inkscape:document-units="mm"
     inkscape:current-layer="layer1"
     showgrid="false"
     inkscape:window-width="2560"
     inkscape:window-height="1017"
     inkscape:window-x="1912"
     inkscape:window-y="-8"
     inkscape:window-maximized="1"
     units="mm" />
  <metadata
     id="metadata5">
    <rdf:RDF>
      <cc:Work
         rdf:about="">
        <dc:format>image/svg+xml</dc:format>
        <dc:type
           rdf:resource="http://purl.org/dc/dcmitype/StillImage" />
        <dc:title></dc:title>
      </cc:Work>
    </rdf:RDF>
  </metadata>
  <g
     inkscape:label="Layer 1"
     inkscape:groupmode="layer"
     id="layer1"
     transform="translate(0,-259.73201)">
    <path
       style="fill:#0b0e0e;fill-opacity:1;stroke-width:0.26458332"
       inkscape:connector-curvature="0"
       d="M 45.032308,259.73205 H 4.658694 c -2.5728233,0 -4.65847930896,2.08565 -4.65847930896,4.65848 v 27.95097 c 0,2.57285 2.08565600896,4.65847 4.65847930896,4.65847 h 40.373614 c 2.572856,0 4.658479,-2.08562 4.658479,-4.65847 v -27.95097 c 0,-2.57283 -2.085623,-4.65848 -4.658479,-4.65848 z m 0,4.65848 v 3.96022 c -2.176097,1.77206 -5.645327,4.52757 -13.061924,10.33503 -1.634458,1.28568 -4.87212,4.37435 -7.124866,4.33834 -2.252399,0.0363 -5.491117,-3.05315 -7.124896,-4.33834 C 10.305196,272.87917 6.8350847,270.1231 4.658694,268.35075 v -3.96022 z M 4.658694,292.3415 v -18.01305 c 2.2238727,1.7713 5.377548,4.25691 10.18446,8.02098 2.121246,1.66976 5.836107,5.35589 10.002364,5.33347 4.145772,0.0235 7.813529,-3.61024 10.001482,-5.33271 4.806765,-3.76396 7.961347,-6.25024 10.185308,-8.02162 v 18.01293 z"
       id="path1843" />
  </g>
</svg>
