<?xml version="1.0" encoding="UTF-8" standalone="no"?>
<!-- Created with Inkscape (http://www.inkscape.org/) -->

<svg
   xmlns:dc="http://purl.org/dc/elements/1.1/"
   xmlns:cc="http://creativecommons.org/ns#"
   xmlns:rdf="http://www.w3.org/1999/02/22-rdf-syntax-ns#"
   xmlns:svg="http://www.w3.org/2000/svg"
   xmlns="http://www.w3.org/2000/svg"
   xmlns:sodipodi="http://sodipodi.sourceforge.net/DTD/sodipodi-0.dtd"
   xmlns:inkscape="http://www.inkscape.org/namespaces/inkscape"
   width="91mm"
   height="22mm"
   viewBox="0 0 91 22"
   version="1.1"
   id="svg8"
   inkscape:version="0.92.4 (5da689c313, 2019-01-14)"
   sodipodi:docname="github-commit-chain.svg">
  <defs
     id="defs2" />
  <sodipodi:namedview
     id="base"
     pagecolor="#ffffff"
     bordercolor="#666666"
     borderopacity="1.0"
     inkscape:pageopacity="0.0"
     inkscape:pageshadow="2"
     inkscape:zoom="0.98994949"
     inkscape:cx="394.62745"
     inkscape:cy="171.03907"
     inkscape:document-units="mm"
     inkscape:current-layer="layer1"
     showgrid="false"
     inkscape:window-width="2560"
     inkscape:window-height="1017"
     inkscape:window-x="1912"
     inkscape:window-y="-8"
     inkscape:window-maximized="1" />
  <metadata
     id="metadata5">
    <rdf:RDF>
      <cc:Work
         rdf:about="">
        <dc:format>image/svg+xml</dc:format>
        <dc:type
           rdf:resource="http://purl.org/dc/dcmitype/StillImage" />
        <dc:title></dc:title>
      </cc:Work>
    </rdf:RDF>
  </metadata>
  <g
     inkscape:label="Layer 1"
     inkscape:groupmode="layer"
     id="layer1"
     transform="translate(0,-275)">
    <g
       transform="rotate(180,51.450844,104.02755)"
       id="g1538">
      <path
         id="path1516"
         d="M 88.534078,-69.700218 H 50.21439 a 0.76760109,0.76760109 0 0 1 -0.76673,-0.766724 v -7.22254 h 0.3067 v 7.22254 a 0.46053643,0.46053643 0 0 0 0.46003,0.460033 h 38.319688 a 0.46053643,0.46053643 0 0 0 0.460034,-0.460033 v -7.273003 h 0.306685 v 7.273003 a 0.76760109,0.76760109 0 0 1 -0.766719,0.766724 z"
         inkscape:connector-curvature="0"
         style="fill:#3f3d56;stroke-width:0.26458332" />
      <rect
         id="rect1518"
         height="0.30668896"
         width="90.046951"
         y="-77.842827"
         x="12.378212"
         style="fill:#3f3d56;stroke-width:0.26458332" />
      <circle
         r="2.6378319"
         cy="-77.713417"
         cx="39.190117"
         data-name="Ellipse 266"
         id="circle1520"
         style="fill:#6c63ff;stroke-width:0.26458332" />
      <circle
         r="2.6378319"
         cy="-69.960175"
         cx="57.381683"
         data-name="Ellipse 268"
         id="circle1522"
         style="fill:#3f3d56;stroke-width:0.26458332" />
      <circle
         r="2.6378319"
         cy="-69.960175"
         cx="71.211342"
         data-name="Ellipse 269"
         id="circle1524"
         style="fill:#cccccc;stroke-width:0.26458332" />
      <circle
         r="2.6378319"
         cy="-77.713417"
         cx="64.509727"
         data-name="Ellipse 270"
         id="circle1526"
         style="fill:#6c63ff;stroke-width:0.26458332" />
      <circle
         r="2.6378319"
         cy="-77.713417"
         cx="89.147438"
         data-name="Ellipse 272"
         id="circle1528"
         style="fill:#6c63ff;stroke-width:0.26458332" />
      <path
         id="path1530"
         d="m 20.56455,-77.536134 a 0.15335215,0.15335215 0 0 1 -0.15335,-0.153348 v -7.569436 a 0.76760109,0.76760109 0 0 1 0.76672,-0.766724 h 7.46401 a 0.1533455,0.1533455 0 0 1 0,0.306691 h -7.46401 a 0.46053643,0.46053643 0 0 0 -0.46003,0.460033 v 7.569436 a 0.15335368,0.15335368 0 0 1 -0.15334,0.153348 z"
         inkscape:connector-curvature="0"
         style="fill:#3f3d56;stroke-width:0.26458332" />
      <circle
         r="2.6378319"
         cy="-85.929626"
         cx="28.992714"
         data-name="Ellipse 265"
         id="circle1532"
         style="fill:#e6e6e6;stroke-width:0.26458332" />
      <path
         id="path1534"
         d="m 79.60217,-77.689482 h -0.30669 v -7.569436 a 0.76760109,0.76760109 0 0 1 0.76673,-0.766724 h 7.464008 v 0.306691 H 80.06221 a 0.46053643,0.46053643 0 0 0 -0.46004,0.460033 z"
         inkscape:connector-curvature="0"
         style="fill:#3f3d56;stroke-width:0.26458332" />
      <circle
         r="2.6378319"
         cy="-85.929626"
         cx="87.876999"
         data-name="Ellipse 265"
         id="circle1536"
         style="fill:#e6e6e6;stroke-width:0.26458332" />
    </g>
  </g>
</svg>
