<?xml version="1.0" encoding="UTF-8" standalone="no"?>
<!-- Created with Inkscape (http://www.inkscape.org/) -->

<svg
   xmlns:dc="http://purl.org/dc/elements/1.1/"
   xmlns:cc="http://creativecommons.org/ns#"
   xmlns:rdf="http://www.w3.org/1999/02/22-rdf-syntax-ns#"
   xmlns:svg="http://www.w3.org/2000/svg"
   xmlns="http://www.w3.org/2000/svg"
   xmlns:sodipodi="http://sodipodi.sourceforge.net/DTD/sodipodi-0.dtd"
   xmlns:inkscape="http://www.inkscape.org/namespaces/inkscape"
   width="115.328mm"
   height="133.12601mm"
   viewBox="0 0 115.328 133.126"
   version="1.1"
   id="svg8"
   inkscape:version="0.92.4 (5da689c313, 2019-01-14)"
   sodipodi:docname="knowledge-spears.svg">
  <defs
     id="defs2" />
  <sodipodi:namedview
     id="base"
     pagecolor="#ffffff"
     bordercolor="#666666"
     borderopacity="1.0"
     inkscape:pageopacity="0.0"
     inkscape:pageshadow="2"
     inkscape:zoom="0.7"
     inkscape:cx="139.55782"
     inkscape:cy="297.07916"
     inkscape:document-units="mm"
     inkscape:current-layer="layer1"
     showgrid="false"
     inkscape:window-width="2560"
     inkscape:window-height="1017"
     inkscape:window-x="1912"
     inkscape:window-y="-8"
     inkscape:window-maximized="1"
     units="mm" />
  <metadata
     id="metadata5">
    <rdf:RDF>
      <cc:Work
         rdf:about="">
        <dc:format>image/svg+xml</dc:format>
        <dc:type
           rdf:resource="http://purl.org/dc/dcmitype/StillImage" />
        <dc:title></dc:title>
      </cc:Work>
    </rdf:RDF>
  </metadata>
  <g
     inkscape:label="Layer 1"
     inkscape:groupmode="layer"
     id="layer1"
     transform="translate(0,-163.874)">
    <g
       id="g2033"
       transform="matrix(2.344819,0,0,2.344819,-300.05876,-973.80527)"
       style="stroke-width:0.42647216">
      <circle
         style="fill:#cccccc;fill-opacity:1;stroke-width:0.11283741"
         cx="129.86174"
         cy="515.36768"
         r="1.1317141"
         id="circle1767" />
      <path
         style="fill:#3f3d56;stroke-width:0.11283741"
         inkscape:connector-curvature="0"
         d="m 156.92739,524.18946 a 79.578284,79.578284 0 0 1 -12.63808,-6.63022 c -9.61887,-6.1873 -16.1774,-13.34369 -16.32006,-17.80792 -0.0417,-1.30477 0.44296,-2.3395 1.44057,-3.07528 1.61376,-1.19037 4.4908,-1.47598 8.32028,-0.82658 l -0.0946,0.55792 c -3.67443,-0.62332 -6.40269,-0.3729 -7.88981,0.72399 -0.83888,0.61882 -1.24628,1.49413 -1.21091,2.6019 0.13699,4.28648 6.5913,11.25894 16.06065,17.35 a 78.990521,78.990521 0 0 0 12.54643,6.58252 z"
         id="path1769" />
      <path
         style="fill:#3f3d56;stroke-width:0.11283741"
         inkscape:connector-curvature="0"
         d="m 170.54613,527.54188 c -1.67818,0 -3.6655,-0.27012 -5.92524,-0.81185 l 0.13187,-0.5502 c 4.74487,1.13723 8.33545,1.04265 10.11043,-0.26663 0.83888,-0.61881 1.24628,-1.49421 1.21091,-2.60189 -0.13704,-4.28657 -6.5913,-11.25894 -16.06066,-17.34992 -4.79933,-3.08715 -9.8967,-5.65819 -14.74101,-7.43507 l 0.19487,-0.53122 c 4.88274,1.79096 10.01855,4.38105 14.85228,7.49033 9.61884,6.18721 16.1774,13.34359 16.32006,17.80782 0.0417,1.30477 -0.44296,2.33951 -1.44057,3.07528 -1.05951,0.78146 -2.63201,1.17335 -4.65294,1.17335 z"
         id="path1771" />
      <path
         style="fill:#ee7e12;fill-opacity:1;stroke-width:0.11283741"
         inkscape:connector-curvature="0"
         d="m 134.07916,527.53589 c -2.0265,9e-5 -3.61361,-0.38866 -4.66934,-1.16737 -0.99761,-0.73577 -1.48229,-1.77051 -1.44057,-3.07528 0.14266,-4.46423 6.70122,-11.62061 16.32006,-17.80783 10.75037,-6.91499 22.81719,-11.01312 28.69243,-9.74381 l -0.11946,0.55315 c -5.74251,-1.24122 -17.63048,2.82486 -28.26683,9.66663 -9.46936,6.09097 -15.92362,13.06333 -16.06066,17.34992 -0.0354,1.10766 0.37203,1.98308 1.21091,2.60189 4.24873,3.13338 17.82672,-0.82742 30.26774,-8.82992 8.5462,-5.49712 14.61881,-11.64769 15.84796,-16.0514 l 0.54505,0.15214 c -1.26489,4.53155 -7.42899,10.80618 -16.08687,16.37523 -6.093,3.91918 -12.64447,6.99907 -18.44759,8.67224 -3.01428,0.86914 -5.64931,1.30431 -7.79283,1.30441 z"
         id="path1773" />
      <circle
         style="fill:#6c63ff;stroke-width:0.11283741"
         cx="141.59616"
         cy="496.97729"
         r="1.6975713"
         id="circle1775" />
      <circle
         style="fill:#6c63ff;stroke-width:0.11283741"
         cx="160.55237"
         cy="525.36444"
         r="1.6975713"
         id="circle1777" />
      <circle
         style="fill:#cccccc;fill-opacity:1;stroke-width:0.11283741"
         cx="165.83369"
         cy="540.83124"
         r="1.1317141"
         id="circle1779" />
      <circle
         style="fill:#cccccc;fill-opacity:1;stroke-width:0.11283741"
         cx="137.91809"
         cy="486.32034"
         r="1.1317141"
         id="circle1781" />
      <circle
         style="fill:#6c63ff;stroke-width:0.11283741"
         cx="175.45325"
         cy="497.82608"
         r="1.6975713"
         id="circle1783" />
    </g>
  </g>
</svg>
