<?xml version="1.0" encoding="UTF-8" standalone="no"?>
<!-- Created with Inkscape (http://www.inkscape.org/) -->

<svg
   xmlns:dc="http://purl.org/dc/elements/1.1/"
   xmlns:cc="http://creativecommons.org/ns#"
   xmlns:rdf="http://www.w3.org/1999/02/22-rdf-syntax-ns#"
   xmlns:svg="http://www.w3.org/2000/svg"
   xmlns="http://www.w3.org/2000/svg"
   xmlns:sodipodi="http://sodipodi.sourceforge.net/DTD/sodipodi-0.dtd"
   xmlns:inkscape="http://www.inkscape.org/namespaces/inkscape"
   width="55mm"
   height="48mm"
   viewBox="0 0 55 48"
   version="1.1"
   id="svg8"
   inkscape:version="0.92.4 (5da689c313, 2019-01-14)"
   sodipodi:docname="man-on-computer.svg">
  <defs
     id="defs2" />
  <sodipodi:namedview
     id="base"
     pagecolor="#ffffff"
     bordercolor="#666666"
     borderopacity="1.0"
     inkscape:pageopacity="0.0"
     inkscape:pageshadow="2"
     inkscape:zoom="0.98994949"
     inkscape:cx="394.62745"
     inkscape:cy="332.66348"
     inkscape:document-units="mm"
     inkscape:current-layer="layer1"
     showgrid="false"
     inkscape:window-width="2560"
     inkscape:window-height="1017"
     inkscape:window-x="1912"
     inkscape:window-y="-8"
     inkscape:window-maximized="1" />
  <metadata
     id="metadata5">
    <rdf:RDF>
      <cc:Work
         rdf:about="">
        <dc:format>image/svg+xml</dc:format>
        <dc:type
           rdf:resource="http://purl.org/dc/dcmitype/StillImage" />
        <dc:title></dc:title>
      </cc:Work>
    </rdf:RDF>
  </metadata>
  <g
     inkscape:label="Layer 1"
     inkscape:groupmode="layer"
     id="layer1"
     transform="translate(0,-249)">
    <g
       transform="translate(-18.005745,90.698393)"
       id="g2834">
      <g
         id="g2914"
         transform="translate(3.84e-6,2.2e-5)">
        <path
           style="fill:#f2f2f2;stroke-width:0.26458329"
           inkscape:connector-curvature="0"
           d="M 67.503578,183.27533 A 22.809304,22.809304 0 0 1 61.138158,199.11 q -0.36994,0.38734 -0.75986,0.756 -0.59404,0.56506 -1.22801,1.08634 a 22.791517,22.791517 0 0 1 -14.01102,5.19601 q -0.25596,0.006 -0.51387,0.006 c -4.084558,0 -9.221974,-2.18169 -13.884157,-5.20181 q -0.578587,-0.37477 -1.146871,-0.76694 -0.265629,-0.18159 -0.528681,-0.36834 a 47.03586,47.03586 0 0 1 -5.107795,-4.17278 33.106413,33.106413 0 0 1 -2.946062,-3.15019 c -3.582282,-4.41878 -4.372406,-8.4003 0.734745,-9.21876 q 0.907001,-0.14489 1.760553,-0.30974 1.236386,-0.23762 2.366509,-0.51323 1.522293,-0.36994 2.86042,-0.80235 0.450119,-0.14489 0.879633,-0.29558 c 4.233313,-1.48687 7.066684,-3.4258 8.995308,-5.52958 q 0.490688,-0.53415 0.904747,-1.08119 a 15.20072,15.20072 0 0 0 1.148159,-1.74638 16.414132,16.414132 0 0 0 1.185508,-2.64341 l 0.01739,-0.0502 c 1.534528,-4.4265 1.067666,-8.53231 2.760604,-9.90649 7.23668,-5.87474 16.24616,2.49143 20.47496,12.35736 q 0.31972,0.74569 0.60145,1.5004 0.12654,0.33711 0.24406,0.6755 0.30909,0.88188 0.56088,1.76828 0.0966,0.33807 0.18417,0.6755 c 0.0625,0.24277 0.12235,0.48489 0.17773,0.72702 0.41147,1.77278 0.63492,3.5211 0.63492,5.17412 z"
           id="path1357" />
        <path
           style="fill:#2f2e41;stroke-width:0.26458329"
           inkscape:connector-curvature="0"
           d="m 45.139268,206.14835 q -0.25596,0.006 -0.51387,0.006 c -4.084558,0 -9.221974,-2.1817 -13.884157,-5.20182 q -0.578587,-0.37477 -1.146871,-0.76694 l 0.332277,-2.022 10.05911,-1.33554 5.048551,3.86046 z"
           id="path1359" />
        <path
           style="fill:#ffffff;stroke-width:0.26458329"
           inkscape:connector-curvature="0"
           d="m 45.623518,170.04284 h -1.43343 a 0.16749085,0.16749085 0 0 0 -0.167416,0.16742 v 1.43407 a 0.16695251,0.16695251 0 0 0 0.167416,0.16679 h 1.43343 a 0.16737365,0.16737365 0 0 0 0.16743,-0.16679 v -1.43407 a 0.1679165,0.1679165 0 0 0 -0.16743,-0.16742 z"
           id="path1361" />
        <path
           style="fill:#e6e6e6;stroke-width:0.26458329"
           inkscape:connector-curvature="0"
           d="m 45.623518,172.48662 h -1.43343 a 0.16749407,0.16749407 0 0 0 -0.167416,0.16743 v 1.43407 a 0.16694542,0.16694542 0 0 0 0.167416,0.16678 h 1.43343 a 0.16736657,0.16736657 0 0 0 0.16743,-0.16678 v -1.43407 a 0.16791779,0.16791779 0 0 0 -0.16743,-0.16743 z"
           id="path1363" />
        <path
           style="fill:#e6e6e6;stroke-width:0.26458329"
           inkscape:connector-curvature="0"
           d="m 45.623518,174.9304 h -1.43343 a 0.16750115,0.16750115 0 0 0 -0.167416,0.16744 v 1.43342 a 0.1670813,0.1670813 0 0 0 0.167416,0.16742 h 1.43343 a 0.16750115,0.16750115 0 0 0 0.16743,-0.16742 v -1.43342 a 0.16792487,0.16792487 0 0 0 -0.16743,-0.16744 z"
           id="path1365" />
        <path
           style="fill:#e6e6e6;stroke-width:0.26458329"
           inkscape:connector-curvature="0"
           d="m 45.788368,177.512 a 0.16853018,0.16853018 0 0 0 -0.16485,-0.13782 h -1.43343 a 0.1675063,0.1675063 0 0 0 -0.167416,0.16743 v 1.43343 a 0.16708774,0.16708774 0 0 0 0.167416,0.16743 h 1.43343 a 0.16750759,0.16750759 0 0 0 0.16743,-0.16743 v -1.43343 a 0.14892647,0.14892647 0 0 0 -0.003,-0.0296 z"
           id="path1367" />
        <path
           style="fill:#e6e6e6;stroke-width:0.26458329"
           inkscape:connector-curvature="0"
           d="m 45.688558,179.83085 a 0.16961588,0.16961588 0 0 0 -0.065,-0.0129 h -1.43346 a 0.16708838,0.16708838 0 0 0 -0.167422,0.16743 v 1.43343 a 0.1666769,0.1666769 0 0 0 0.167422,0.16743 h 1.43342 a 0.16751467,0.16751467 0 0 0 0.16744,-0.16743 v -1.43343 a 0.16844067,0.16844067 0 0 0 -0.1024,-0.15454 z"
           id="path1369" />
        <path
           style="fill:#e6e6e6;stroke-width:0.26458329"
           inkscape:connector-curvature="0"
           d="m 48.634618,170.04284 h -1.43342 a 0.16749085,0.16749085 0 0 0 -0.16742,0.16742 v 1.43407 a 0.16695251,0.16695251 0 0 0 0.16742,0.16679 h 1.43342 a 0.16737365,0.16737365 0 0 0 0.16744,-0.16679 v -1.43407 a 0.1679165,0.1679165 0 0 0 -0.16744,-0.16742 z"
           id="path1371" />
        <path
           style="fill:#6c63ff;stroke-width:0.26458329"
           inkscape:connector-curvature="0"
           d="m 48.634618,172.48662 h -1.43342 a 0.16749407,0.16749407 0 0 0 -0.16742,0.16743 v 1.43407 a 0.16694542,0.16694542 0 0 0 0.16742,0.16678 h 1.43342 a 0.16736657,0.16736657 0 0 0 0.16744,-0.16678 v -1.43407 a 0.16791779,0.16791779 0 0 0 -0.16744,-0.16743 z"
           id="path1373" />
        <path
           style="fill:#6c63ff;stroke-width:0.26458329"
           inkscape:connector-curvature="0"
           d="m 48.634618,174.9304 h -1.43342 a 0.16750115,0.16750115 0 0 0 -0.16742,0.16744 v 1.43342 a 0.1670813,0.1670813 0 0 0 0.16742,0.16742 h 1.43342 a 0.16750115,0.16750115 0 0 0 0.16744,-0.16742 v -1.43342 a 0.16792487,0.16792487 0 0 0 -0.16744,-0.16744 z"
           id="path1375" />
        <path
           style="fill:#6c63ff;stroke-width:0.26458329"
           inkscape:connector-curvature="0"
           d="m 48.634618,177.37418 h -1.43342 a 0.16695058,0.16695058 0 0 0 -0.15842,0.11462 0.15959991,0.15959991 0 0 0 -0.009,0.0528 v 1.43343 a 0.16708774,0.16708774 0 0 0 0.16741,0.16743 h 1.43343 a 0.16750759,0.16750759 0 0 0 0.16743,-0.16743 v -1.43343 a 0.16793002,0.16793002 0 0 0 -0.16743,-0.16743 z"
           id="path1377" />
        <path
           style="fill:#e6e6e6;stroke-width:0.26458329"
           inkscape:connector-curvature="0"
           d="m 48.634618,179.81797 h -1.43342 a 0.16708838,0.16708838 0 0 0 -0.16742,0.16742 v 1.43343 a 0.16709482,0.16709482 0 0 0 0.16742,0.16744 h 1.43342 a 0.16751467,0.16751467 0 0 0 0.16744,-0.16744 v -1.43343 a 0.16750824,0.16750824 0 0 0 -0.16744,-0.16742 z"
           id="path1379" />
        <path
           style="fill:#6c63ff;stroke-width:0.26458329"
           inkscape:connector-curvature="0"
           d="m 51.645718,170.04284 h -1.43342 a 0.16749085,0.16749085 0 0 0 -0.16742,0.16742 v 1.43407 a 0.16695251,0.16695251 0 0 0 0.16742,0.16679 h 1.43342 a 0.16737365,0.16737365 0 0 0 0.16744,-0.16679 v -1.43407 a 0.1679165,0.1679165 0 0 0 -0.16744,-0.16742 z"
           id="path1381" />
        <path
           style="fill:#6c63ff;stroke-width:0.26458329"
           inkscape:connector-curvature="0"
           d="m 51.645718,172.48662 h -1.43342 a 0.16749407,0.16749407 0 0 0 -0.16742,0.16743 v 1.43407 a 0.16694542,0.16694542 0 0 0 0.16742,0.16678 h 1.43342 a 0.16736657,0.16736657 0 0 0 0.16744,-0.16678 v -1.43407 a 0.16791779,0.16791779 0 0 0 -0.16744,-0.16743 z"
           id="path1383" />
        <path
           style="fill:#e6e6e6;stroke-width:0.26458329"
           inkscape:connector-curvature="0"
           d="m 51.645718,174.9304 h -1.43342 a 0.16750115,0.16750115 0 0 0 -0.16742,0.16744 v 1.43342 a 0.1670813,0.1670813 0 0 0 0.16742,0.16742 h 1.43342 a 0.16750115,0.16750115 0 0 0 0.16744,-0.16742 v -1.43342 a 0.16792487,0.16792487 0 0 0 -0.16744,-0.16744 z"
           id="path1385" />
        <path
           style="fill:#6c63ff;stroke-width:0.26458329"
           inkscape:connector-curvature="0"
           d="m 51.645718,177.37418 h -1.43342 a 0.1675063,0.1675063 0 0 0 -0.16742,0.16743 v 1.43343 a 0.16708774,0.16708774 0 0 0 0.16742,0.16743 h 1.43342 a 0.16750759,0.16750759 0 0 0 0.16744,-0.16743 v -1.43343 a 0.16793002,0.16793002 0 0 0 -0.16744,-0.16743 z"
           id="path1387" />
        <path
           style="fill:#6c63ff;stroke-width:0.26458329"
           inkscape:connector-curvature="0"
           d="m 51.645718,179.81797 h -1.43342 a 0.16708838,0.16708838 0 0 0 -0.16742,0.16742 v 1.43343 a 0.16709482,0.16709482 0 0 0 0.16742,0.16744 h 1.43342 a 0.16751467,0.16751467 0 0 0 0.16744,-0.16744 v -1.43343 a 0.16750824,0.16750824 0 0 0 -0.16744,-0.16742 z"
           id="path1389" />
        <path
           style="fill:#6c63ff;stroke-width:0.26458329"
           inkscape:connector-curvature="0"
           d="m 54.656818,170.04284 h -1.43342 a 0.16749922,0.16749922 0 0 0 -0.16743,0.16742 v 1.43407 a 0.16695959,0.16695959 0 0 0 0.16743,0.16679 h 1.43342 a 0.16737365,0.16737365 0 0 0 0.16744,-0.16679 v -1.43407 a 0.1679165,0.1679165 0 0 0 -0.16744,-0.16742 z"
           id="path1391" />
        <path
           style="fill:#ffffff;stroke-width:0.26458329"
           inkscape:connector-curvature="0"
           d="m 54.656818,172.48662 h -1.43342 a 0.16750115,0.16750115 0 0 0 -0.16743,0.16743 v 1.43407 a 0.16695251,0.16695251 0 0 0 0.16743,0.16678 h 1.43342 a 0.16736657,0.16736657 0 0 0 0.16744,-0.16678 v -1.43407 a 0.16791779,0.16791779 0 0 0 -0.16744,-0.16743 z"
           id="path1393" />
        <path
           style="fill:#ffffff;stroke-width:0.26458329"
           inkscape:connector-curvature="0"
           d="m 54.656818,174.9304 h -1.43342 a 0.16750759,0.16750759 0 0 0 -0.16743,0.16744 v 1.43342 a 0.16708774,0.16708774 0 0 0 0.16743,0.16742 h 1.43342 a 0.16750115,0.16750115 0 0 0 0.16744,-0.16742 v -1.43342 a 0.16792487,0.16792487 0 0 0 -0.16744,-0.16744 z"
           id="path1395" />
        <path
           style="fill:#e6e6e6;stroke-width:0.26458329"
           inkscape:connector-curvature="0"
           d="m 54.656818,177.37418 h -1.43342 a 0.16751274,0.16751274 0 0 0 -0.16743,0.16743 v 1.43343 a 0.16709482,0.16709482 0 0 0 0.16743,0.16743 h 1.43342 a 0.16750759,0.16750759 0 0 0 0.16744,-0.16743 v -1.43343 a 0.16793002,0.16793002 0 0 0 -0.16744,-0.16743 z"
           id="path1397" />
        <path
           style="fill:#6c63ff;stroke-width:0.26458329"
           inkscape:connector-curvature="0"
           d="m 54.656818,179.81797 h -1.43342 a 0.16709482,0.16709482 0 0 0 -0.16743,0.16742 v 1.43343 a 0.16710448,0.16710448 0 0 0 0.16743,0.16744 h 1.43342 a 0.16751467,0.16751467 0 0 0 0.16744,-0.16744 v -1.43343 a 0.16750824,0.16750824 0 0 0 -0.16744,-0.16742 z"
           id="path1399" />
        <path
           style="fill:#ffffff;stroke-width:0.26458329"
           inkscape:connector-curvature="0"
           d="m 57.667918,170.04284 h -1.43407 a 0.16736206,0.16736206 0 0 0 -0.16678,0.16742 v 1.43407 a 0.1668205,0.1668205 0 0 0 0.16678,0.16679 h 1.43407 a 0.16737365,0.16737365 0 0 0 0.16744,-0.16679 v -1.43407 a 0.1679165,0.1679165 0 0 0 -0.16744,-0.16742 z"
           id="path1401" />
        <path
           style="fill:#ffffff;stroke-width:0.26458329"
           inkscape:connector-curvature="0"
           d="m 57.667918,172.48662 h -1.43407 a 0.16736206,0.16736206 0 0 0 -0.16678,0.16743 v 1.43407 a 0.16681342,0.16681342 0 0 0 0.16678,0.16678 h 1.43407 a 0.16736657,0.16736657 0 0 0 0.16744,-0.16678 v -1.43407 a 0.16791779,0.16791779 0 0 0 -0.16744,-0.16743 z"
           id="path1403" />
        <path
           style="fill:#ffffff;stroke-width:0.26458329"
           inkscape:connector-curvature="0"
           d="m 57.667918,174.9304 h -1.43407 a 0.16737172,0.16737172 0 0 0 -0.16678,0.16744 v 1.43342 a 0.16695058,0.16695058 0 0 0 0.16678,0.16742 h 1.43407 a 0.16750115,0.16750115 0 0 0 0.16744,-0.16742 v -1.43342 a 0.16792487,0.16792487 0 0 0 -0.16744,-0.16744 z"
           id="path1405" />
        <path
           style="fill:#6c63ff;stroke-width:0.26458329"
           inkscape:connector-curvature="0"
           d="m 57.667918,177.37418 h -1.43407 a 0.16737687,0.16737687 0 0 0 -0.16678,0.16743 v 1.43343 a 0.16695702,0.16695702 0 0 0 0.16678,0.16743 h 1.43407 a 0.16750759,0.16750759 0 0 0 0.16744,-0.16743 v -1.43343 a 0.16793002,0.16793002 0 0 0 -0.16744,-0.16743 z"
           id="path1407" />
        <path
           style="fill:#e6e6e6;stroke-width:0.26458329"
           inkscape:connector-curvature="0"
           d="m 57.667918,179.81797 h -1.43407 a 0.16695766,0.16695766 0 0 0 -0.16678,0.16742 v 1.43343 a 0.1669641,0.1669641 0 0 0 0.16678,0.16744 h 1.43407 a 0.16751467,0.16751467 0 0 0 0.16744,-0.16744 v -1.43343 a 0.16750824,0.16750824 0 0 0 -0.16744,-0.16742 z"
           id="path1409" />
        <path
           style="fill:#ffffff;stroke-width:0.26458329"
           inkscape:connector-curvature="0"
           d="m 60.679018,170.04284 h -1.43407 a 0.16736206,0.16736206 0 0 0 -0.16678,0.16742 v 1.43407 a 0.1668205,0.1668205 0 0 0 0.16678,0.16679 h 1.43407 a 0.16737945,0.16737945 0 0 0 0.16744,-0.16679 v -1.43407 a 0.16792165,0.16792165 0 0 0 -0.16744,-0.16742 z"
           id="path1411" />
        <path
           style="fill:#ffffff;stroke-width:0.26458329"
           inkscape:connector-curvature="0"
           d="m 60.679018,172.48662 h -1.43407 a 0.16736206,0.16736206 0 0 0 -0.16678,0.16743 v 1.43407 a 0.16681342,0.16681342 0 0 0 0.16678,0.16678 h 1.43407 a 0.16737236,0.16737236 0 0 0 0.16744,-0.16678 v -1.43407 a 0.16792358,0.16792358 0 0 0 -0.16744,-0.16743 z"
           id="path1413" />
        <path
           style="fill:#6c63ff;stroke-width:0.26458329"
           inkscape:connector-curvature="0"
           d="m 60.679018,174.9304 h -1.43407 a 0.16737172,0.16737172 0 0 0 -0.16678,0.16744 v 1.43342 a 0.16695058,0.16695058 0 0 0 0.16678,0.16742 h 1.43407 a 0.1675063,0.1675063 0 0 0 0.16744,-0.16742 v -1.43342 a 0.16793002,0.16793002 0 0 0 -0.16744,-0.16744 z"
           id="path1415" />
        <path
           style="fill:#e6e6e6;stroke-width:0.26458329"
           inkscape:connector-curvature="0"
           d="m 60.679018,177.37418 h -1.43407 a 0.16737687,0.16737687 0 0 0 -0.16678,0.16743 v 1.43343 a 0.16695702,0.16695702 0 0 0 0.16678,0.16743 h 1.43407 a 0.16751274,0.16751274 0 0 0 0.16744,-0.16743 v -1.43343 a 0.16793582,0.16793582 0 0 0 -0.16744,-0.16743 z"
           id="path1417" />
        <path
           style="fill:#ffffff;stroke-width:0.26458329"
           inkscape:connector-curvature="0"
           d="m 60.679018,179.81797 h -1.43407 a 0.16695766,0.16695766 0 0 0 -0.16678,0.16742 v 1.43343 a 0.1669641,0.1669641 0 0 0 0.16678,0.16744 h 1.43407 a 0.16752047,0.16752047 0 0 0 0.16744,-0.16744 v -1.43343 a 0.16751339,0.16751339 0 0 0 -0.16744,-0.16742 z"
           id="path1419" />
        <path
           style="fill:#6c63ff;stroke-width:0.26458329"
           inkscape:connector-curvature="0"
           d="m 63.690128,170.04284 h -1.43408 a 0.16736206,0.16736206 0 0 0 -0.16678,0.16742 v 1.43407 a 0.1668205,0.1668205 0 0 0 0.16678,0.16679 h 1.43408 a 0.16737945,0.16737945 0 0 0 0.16743,-0.16679 v -1.43407 a 0.16792165,0.16792165 0 0 0 -0.16743,-0.16742 z"
           id="path1421" />
        <path
           style="fill:#6c63ff;stroke-width:0.26458329"
           inkscape:connector-curvature="0"
           d="m 63.690128,172.48662 h -1.43408 a 0.16736206,0.16736206 0 0 0 -0.16678,0.16743 v 1.43407 a 0.16681342,0.16681342 0 0 0 0.16678,0.16678 h 1.43408 a 0.16737236,0.16737236 0 0 0 0.16743,-0.16678 v -1.43407 a 0.16792358,0.16792358 0 0 0 -0.16743,-0.16743 z"
           id="path1423" />
        <path
           style="fill:#e6e6e6;stroke-width:0.26458329"
           inkscape:connector-curvature="0"
           d="m 63.690128,174.9304 h -1.43408 a 0.16737172,0.16737172 0 0 0 -0.16678,0.16744 v 1.43342 a 0.16695058,0.16695058 0 0 0 0.16678,0.16742 h 1.43408 a 0.1675063,0.1675063 0 0 0 0.16743,-0.16742 v -1.43342 a 0.16793002,0.16793002 0 0 0 -0.16743,-0.16744 z"
           id="path1425" />
        <path
           style="fill:#ffffff;stroke-width:0.26458329"
           inkscape:connector-curvature="0"
           d="m 63.690128,177.37418 h -1.43408 a 0.16737687,0.16737687 0 0 0 -0.16678,0.16743 v 1.43343 a 0.16695702,0.16695702 0 0 0 0.16678,0.16743 h 1.43408 a 0.16751274,0.16751274 0 0 0 0.16743,-0.16743 v -1.43343 a 0.16793582,0.16793582 0 0 0 -0.16743,-0.16743 z"
           id="path1427" />
        <path
           style="fill:#6c63ff;stroke-width:0.26458329"
           inkscape:connector-curvature="0"
           d="m 63.690128,179.81797 h -1.43408 a 0.16695766,0.16695766 0 0 0 -0.16678,0.16742 v 1.43343 a 0.1669641,0.1669641 0 0 0 0.16678,0.16744 h 1.43408 a 0.16752047,0.16752047 0 0 0 0.16743,-0.16744 v -1.43343 a 0.16751339,0.16751339 0 0 0 -0.16743,-0.16742 z"
           id="path1429" />
        <path
           style="fill:#6c63ff;stroke-width:0.26458329"
           inkscape:connector-curvature="0"
           d="m 66.701228,170.04284 h -1.43408 a 0.16736206,0.16736206 0 0 0 -0.16678,0.16742 v 1.43407 a 0.1668205,0.1668205 0 0 0 0.16678,0.16679 h 1.43408 a 0.16737236,0.16737236 0 0 0 0.16742,-0.16679 v -1.43407 a 0.16791521,0.16791521 0 0 0 -0.16742,-0.16742 z"
           id="path1431" />
        <path
           style="fill:#6c63ff;stroke-width:0.26458329"
           inkscape:connector-curvature="0"
           d="m 66.701228,172.48662 h -1.43408 a 0.16736206,0.16736206 0 0 0 -0.16678,0.16743 v 1.43407 a 0.16681342,0.16681342 0 0 0 0.16678,0.16678 h 1.43408 a 0.16736592,0.16736592 0 0 0 0.16742,-0.16678 v -1.43407 a 0.1679165,0.1679165 0 0 0 -0.16742,-0.16743 z"
           id="path1433" />
        <path
           style="fill:#e6e6e6;stroke-width:0.26458329"
           inkscape:connector-curvature="0"
           d="m 66.701228,174.9304 h -1.43408 a 0.16737172,0.16737172 0 0 0 -0.16678,0.16744 v 1.43342 a 0.16695058,0.16695058 0 0 0 0.16678,0.16742 h 1.43408 a 0.16749986,0.16749986 0 0 0 0.16742,-0.16742 v -1.43342 a 0.16792358,0.16792358 0 0 0 -0.16742,-0.16744 z"
           id="path1435" />
        <path
           style="fill:#6c63ff;stroke-width:0.26458329"
           inkscape:connector-curvature="0"
           d="m 66.701228,177.37418 h -1.43408 a 0.16737687,0.16737687 0 0 0 -0.16678,0.16743 v 1.43343 a 0.16695702,0.16695702 0 0 0 0.16678,0.16743 h 1.43408 a 0.1675063,0.1675063 0 0 0 0.16742,-0.16743 v -1.43343 a 0.16792873,0.16792873 0 0 0 -0.16742,-0.16743 z"
           id="path1437" />
        <path
           style="fill:#6c63ff;stroke-width:0.26458329"
           inkscape:connector-curvature="0"
           d="m 66.701228,179.81797 h -1.43408 a 0.16695766,0.16695766 0 0 0 -0.16678,0.16742 v 1.43343 a 0.1669641,0.1669641 0 0 0 0.16678,0.16744 h 1.43408 a 0.16751339,0.16751339 0 0 0 0.16742,-0.16744 v -1.43343 a 0.16750695,0.16750695 0 0 0 -0.16742,-0.16742 z"
           id="path1439" />
        <path
           style="fill:#e6e6e6;stroke-width:0.26458329"
           inkscape:connector-curvature="0"
           d="m 69.712328,170.04284 h -1.43408 a 0.16736206,0.16736206 0 0 0 -0.16678,0.16742 v 1.43407 a 0.1668205,0.1668205 0 0 0 0.16678,0.16679 h 1.43408 a 0.16737236,0.16737236 0 0 0 0.16742,-0.16679 v -1.43407 a 0.16791521,0.16791521 0 0 0 -0.16742,-0.16742 z"
           id="path1441" />
        <path
           style="fill:#6c63ff;stroke-width:0.26458329"
           inkscape:connector-curvature="0"
           d="m 69.712328,172.48662 h -1.43408 a 0.16736206,0.16736206 0 0 0 -0.16678,0.16743 v 1.43407 a 0.16681342,0.16681342 0 0 0 0.16678,0.16678 h 1.43408 a 0.16736592,0.16736592 0 0 0 0.16742,-0.16678 v -1.43407 a 0.1679165,0.1679165 0 0 0 -0.16742,-0.16743 z"
           id="path1443" />
        <path
           style="fill:#6c63ff;stroke-width:0.26458329"
           inkscape:connector-curvature="0"
           d="m 69.712328,174.9304 h -1.43408 a 0.16737172,0.16737172 0 0 0 -0.16678,0.16744 v 1.43342 a 0.16695058,0.16695058 0 0 0 0.16678,0.16742 h 1.43408 a 0.16749986,0.16749986 0 0 0 0.16742,-0.16742 v -1.43342 a 0.16792358,0.16792358 0 0 0 -0.16742,-0.16744 z"
           id="path1445" />
        <path
           style="fill:#6c63ff;stroke-width:0.26458329"
           inkscape:connector-curvature="0"
           d="m 69.712328,177.37418 h -1.43408 a 0.16737687,0.16737687 0 0 0 -0.16678,0.16743 v 1.43343 a 0.16695702,0.16695702 0 0 0 0.16678,0.16743 h 1.43408 a 0.1675063,0.1675063 0 0 0 0.16742,-0.16743 v -1.43343 a 0.16792873,0.16792873 0 0 0 -0.16742,-0.16743 z"
           id="path1447" />
        <path
           style="fill:#e6e6e6;stroke-width:0.26458329"
           inkscape:connector-curvature="0"
           d="m 69.712328,179.81797 h -1.43408 a 0.16695766,0.16695766 0 0 0 -0.16678,0.16742 v 1.43343 a 0.1669641,0.1669641 0 0 0 0.16678,0.16744 h 1.43408 a 0.16751339,0.16751339 0 0 0 0.16742,-0.16744 v -1.43343 a 0.16750695,0.16750695 0 0 0 -0.16742,-0.16742 z"
           id="path1449" />
        <path
           style="fill:#e6e6e6;stroke-width:0.26458329"
           inkscape:connector-curvature="0"
           d="m 72.723428,170.04284 h -1.43408 a 0.16737043,0.16737043 0 0 0 -0.16678,0.16742 v 1.43407 a 0.16682758,0.16682758 0 0 0 0.16678,0.16679 h 1.43408 a 0.16737236,0.16737236 0 0 0 0.16742,-0.16679 v -1.43407 a 0.16791521,0.16791521 0 0 0 -0.16742,-0.16742 z"
           id="path1451" />
        <path
           style="fill:#e6e6e6;stroke-width:0.26458329"
           inkscape:connector-curvature="0"
           d="m 72.723428,172.48662 h -1.43408 a 0.16737236,0.16737236 0 0 0 -0.16678,0.16743 v 1.43407 a 0.1668205,0.1668205 0 0 0 0.16678,0.16678 h 1.43408 a 0.16736592,0.16736592 0 0 0 0.16742,-0.16678 v -1.43407 a 0.1679165,0.1679165 0 0 0 -0.16742,-0.16743 z"
           id="path1453" />
        <path
           style="fill:#6c63ff;stroke-width:0.26458329"
           inkscape:connector-curvature="0"
           d="m 72.723428,174.9304 h -1.43408 a 0.1673788,0.1673788 0 0 0 -0.16678,0.16744 v 1.43342 a 0.16695766,0.16695766 0 0 0 0.16678,0.16742 h 1.43408 a 0.16749986,0.16749986 0 0 0 0.16742,-0.16742 v -1.43342 a 0.16792358,0.16792358 0 0 0 -0.16742,-0.16744 z"
           id="path1455" />
        <path
           style="fill:#e6e6e6;stroke-width:0.26458329"
           inkscape:connector-curvature="0"
           d="m 72.723428,177.37418 h -1.43408 a 0.16738395,0.16738395 0 0 0 -0.16678,0.16743 v 1.43343 a 0.1669641,0.1669641 0 0 0 0.16678,0.16743 h 1.43408 a 0.1675063,0.1675063 0 0 0 0.16742,-0.16743 v -1.43343 a 0.16792873,0.16792873 0 0 0 -0.16742,-0.16743 z"
           id="path1457" />
        <path
           style="fill:#e6e6e6;stroke-width:0.26458329"
           inkscape:connector-curvature="0"
           d="m 72.723428,179.81797 h -1.43408 a 0.16696474,0.16696474 0 0 0 -0.16678,0.16742 v 1.43343 a 0.16697118,0.16697118 0 0 0 0.16678,0.16744 h 1.43408 a 0.16751339,0.16751339 0 0 0 0.16742,-0.16744 v -1.43343 a 0.16750695,0.16750695 0 0 0 -0.16742,-0.16742 z"
           id="path1459" />
        <polygon
           style="fill:#2f2e41;stroke-width:4.10876846"
           points="335.475,660.051 336.005,659.981 336.095,660.051 "
           id="polygon1461"
           transform="matrix(0.06439479,0,0,0.06439479,18.120634,158.44859)" />
        <circle
           style="fill:#ffb6b6;stroke-width:0.26458329"
           id="circle1463"
           data-name="ab6171fa-7d69-4734-b81c-8dff60f9761b"
           cx="36.332409"
           cy="169.82927"
           r="4.3995714" />
        <path
           style="fill:#2f2e41;stroke-width:0.26458329"
           inkscape:connector-curvature="0"
           id="path1465"
           data-name="bf427902-b9bf-4946-b5d7-5c1c7e04535e"
           d="m 40.185248,166.60357 c 0,0 1.150697,-2.19979 -1.380871,-2.39977 0,0 -2.158184,-1.95775 -4.357968,-0.35791 0,0 -1.199883,0 -1.856022,1.35781 0,0 -0.943706,-0.35791 -1.15109,0.59994 0,0 -0.690536,1.99981 0,3.79964 0.690537,1.79983 0.919904,1.9998 0.919904,1.9998 0,0 -1.134694,-3.77343 1.62725,-3.97342 2.761945,-0.19998 5.85263,-1.92601 6.082806,0.27378 0.230175,2.19978 0.576545,2.74179 0.576545,2.74179 0,0 2.186176,-3.14175 -0.460554,-4.04166 z" />
        <path
           style="fill:#cccccc;fill-opacity:1;stroke-width:0.26458329"
           inkscape:connector-curvature="0"
           d="m 47.713128,180.67184 -0.0142,0.0747 -0.15905,0.83971 -1.09922,5.80841 -0.065,0.34194 -0.13652,0.72316 -0.18673,0.98652 -0.41407,2.18621 -0.11848,0.62656 -0.0444,0.23503 -0.0154,0.0824 -0.123,0.64846 -0.0373,0.19576 -0.30008,2.22355 -0.2621,1.93764 0.87707,0.87706 -0.52289,0.52288 -0.34322,1.96598 6.5e-4,0.005 H 30.741246 q -0.850016,-0.55058 -1.675552,-1.13529 l 0.115267,-0.86288 c 0,0 0.396666,-1.54097 0.229877,-1.72514 -0.166127,-0.18416 -0.530613,-0.51322 -0.530613,-0.51322 l 0.459144,-1.07153 0.06375,-0.14875 -0.106895,-2.21712 -0.0026,-0.0534 -0.03542,-0.73088 -0.0045,-0.094 -0.0071,-0.14102 -0.135873,-2.81277 -0.0026,-0.0464 -0.0412,-0.85259 -0.03864,-0.81072 -0.01674,-0.34194 -0.165491,-3.4213 -0.112047,-2.32336 -0.09788,-2.02264 0.393452,-0.13329 4.208206,-1.43021 1.743155,-2.26606 3.628009,0.0271 1.776013,0.0135 2.963442,2.74836 0.674219,0.32198 0.0052,0.003 0.483599,0.23118 1.22608,0.58534 1.29627,0.61949 0.66519,0.31746 z"
           id="path1467" />
        <path
           style="fill:#ffb6b6;stroke-width:0.26458329"
           inkscape:connector-curvature="0"
           d="M 35.449843,194.35196 A 1.9502529,1.9502529 0 0 1 32.8313,192.90758 l -6.861833,-0.97351 2.385364,-2.69827 6.150411,1.33814 a 1.9608214,1.9608214 0 0 1 0.944601,3.77802 z"
           id="path1469" />
        <path
           style="fill:#cccccc;fill-opacity:1;stroke-width:0.26458329"
           inkscape:connector-curvature="0"
           d="m 32.390388,189.44628 a 0.8707779,0.8707779 0 0 0 -0.508068,-0.3136 l -2.81534,-0.58536 -0.289133,-0.0599 a 1.2191653,1.2191653 0 0 1 -0.806872,-0.58406 1.2338396,1.2338396 0 0 1 -0.157768,-0.50872 1.2167112,1.2167112 0 0 1 0.05731,-0.48167 l 0.975581,-2.93962 0.632997,-1.90738 a 2.6911967,2.6911967 0 0 0 0.134593,-0.71156 2.7914356,2.7914356 0 0 0 -0.584065,-1.86036 2.7492235,2.7492235 0 0 0 -3.155989,-0.87835 c -0.0161,0.006 -0.03284,0.0122 -0.04894,0.0187 a 2.7421375,2.7421375 0 0 0 -1.629832,1.82945 l -0.687736,2.50174 -1.418617,5.15739 a 3.7198552,3.7198552 0 0 0 3.152769,4.68021 l 4.05494,0.47523 1.876464,0.22023 a 0.86910493,0.86910493 0 0 0 0.955618,-0.69096 0.31524083,0.31524083 0 0 0 0.0071,-0.0354 l 0.04508,-0.27819 0.381865,-2.34267 0.0039,-0.0238 a 0.86770885,0.86770885 0 0 0 -0.175796,-0.68129 z"
           id="path1471" />
        <path
           style="fill:#ffb6b6;stroke-width:0.26458329"
           inkscape:connector-curvature="0"
           d="m 39.820556,194.42706 a 1.9502555,1.9502555 0 0 0 2.388692,-1.79921 l 6.65597,-1.93143 -2.74203,-2.33493 -5.900242,2.1921 a 1.9608214,1.9608214 0 0 0 -0.40239,3.87347 z"
           id="path1473" />
        <path
           style="fill:#cccccc;fill-opacity:1;stroke-width:0.26458329"
           inkscape:connector-curvature="0"
           d="m 52.169898,186.37593 -3.16565,-7.28562 a 2.7573205,2.7573205 0 0 0 -1.30529,-1.37483 2.7919115,2.7919115 0 0 0 -0.56538,-0.20607 c -0.0303,-0.008 -0.0605,-0.0148 -0.0908,-0.0206 a 2.7130749,2.7130749 0 0 0 -1.25441,0.0232 2.7569844,2.7569844 0 0 0 -1.760557,1.3993 0.06463691,0.06463691 0 0 0 -0.0052,0.009 2.7754315,2.7754315 0 0 0 -0.02383,2.50175 l 0.03929,0.0786 2.237077,4.49282 a 1.2170912,1.2170912 0 0 1 -0.67615,1.6865 l -0.15712,0.0567 -2.825648,1.02064 a 0.86913004,0.86913004 0 0 0 -0.536408,1.08119 l 0.0071,0.0225 0.792056,2.53457 c 0.0039,0.0116 0.0077,0.0232 0.01223,0.0348 a 0.45426017,0.45426017 0 0 0 0.02576,0.0637 0.86815575,0.86815575 0 0 0 1.018077,0.48489 l 1.524873,-0.40246 0.31103,-0.0824 3.93774,-1.03997 a 3.7194669,3.7194669 0 0 0 2.46117,-5.07818 z"
           id="path1475" />
        <path
           style="fill:#3f3d56;fill-opacity:1;stroke-width:0.26458329"
           inkscape:connector-curvature="0"
           d="m 21.011832,192.49408 a 33.106413,33.106413 0 0 0 2.946062,3.1502 h 29.104514 a 1.059029,1.059029 0 0 1 1.05736,1.05801 l 0.0419,7.37513 a 22.887847,22.887847 0 0 0 4.98866,-3.12508 q 0.63365,-0.52063 1.22801,-1.08634 0.38927,-0.36898 0.75986,-0.75599 a 22.900625,22.900625 0 0 0 4.43165,-6.61593 z"
           id="path1477" />
        <path
           style="fill:#ffffff;stroke-width:0.26458329"
           inkscape:connector-curvature="0"
           d="m 61.138158,199.11 q -0.36994,0.38734 -0.75985,0.756 h -6.19543 v -0.756 z"
           id="path1479" />
        <path
           style="fill:#3f3d56;fill-opacity:1;stroke-width:0.26458329"
           inkscape:connector-curvature="0"
           d="m 47.655178,174.9304 a 0.35659645,0.35659645 0 0 0 -0.3136,-0.18674 H 26.230386 a 0.35768151,0.35768151 0 0 0 -0.356747,0.35739 v 12.63555 h 21.825319 v -12.63555 a 0.34679685,0.34679685 0 0 0 -0.0438,-0.17065 z"
           id="path1481" />
        <path
           style="fill:#3f3d56;fill-opacity:1;stroke-width:0.26458329"
           inkscape:connector-curvature="0"
           d="m 25.854522,187.3945 v 1.55925 a 0.49222347,0.49222347 0 0 0 0.492222,0.49223 h 8.055577 v 3.07721 h -0.107015 a 0.06393759,0.06393759 0 0 0 -0.06394,0.0639 v 0.21403 a 0.06393759,0.06393759 0 0 0 0.06394,0.0639 h 5.000797 a 0.06393823,0.06393823 0 0 0 0.06394,-0.0639 v -0.21403 a 0.06393759,0.06393759 0 0 0 -0.06394,-0.0639 h -0.107015 v -3.07721 h 8.05558 a 0.49222347,0.49222347 0 0 0 0.49222,-0.49223 v -1.55925 z"
           id="path1484" />
        <circle
           style="fill:#ff7e00;fill-opacity:1;stroke-width:0.26458329"
           cx="36.531292"
           cy="180.90331"
           r="2.0159702"
           id="circle1486" />
        <path
           style="fill:#ff7e00;fill-opacity:1;stroke-width:0.26458329"
           inkscape:connector-curvature="0"
           d="m 41.667749,169.58886 h -0.321974 c 0,-2.43413 -2.409009,-4.02918 -4.839268,-4.03047 a 5.304989,5.304989 0 0 0 -1.052855,0.10239 c -0.390233,0.0779 -0.795276,0.17129 -1.193236,0.29299 -1.569301,0.48103 -3.024623,1.41089 -3.024623,3.63509 a 5.0608509,5.0608509 0 0 0 0.163563,1.28017 l -0.311671,0.0811 a 5.4011594,5.4011594 0 0 1 -0.173866,-1.36131 c 0,-1.94344 0.797852,-3.27834 2.1759,-4.07426 0.724442,-0.41856 1.608582,-0.68838 2.621512,-0.81974 a 6.2547168,6.2547168 0 0 1 1.271797,-0.0386 c 2.794734,0.20091 4.684721,2.34396 4.684721,4.93264 z"
           id="path1488" />
        <path
           style="fill:#ff7e00;fill-opacity:1;stroke-width:0.26458329"
           inkscape:connector-curvature="0"
           d="M 42.204158,169.76723 42.0773,168.82964 a 1.0116505,1.0116505 0 0 0 -0.321974,-0.61561 1.0184461,1.0184461 0 0 0 -0.853231,-0.25758 l -0.201556,0.0277 a 0.42012835,0.42012835 0 0 0 -0.280117,0.16292 0.42165708,0.42165708 0 0 0 -0.08307,0.3136 l 0.292996,2.1598 a 0.42353226,0.42353226 0 0 0 0.341292,0.35868 0.39631258,0.39631258 0 0 0 0.07856,0.008 0.41849079,0.41849079 0 0 0 0.05667,-0.004 l 0.225381,-0.0303 a 1.0168807,1.0168807 0 0 0 0.6916,-0.41406 c 0.01739,-0.0245 0.03413,-0.0496 0.04958,-0.0753 a 1.0785097,1.0785097 0 0 0 0.130722,-0.6961 z"
           id="path1490" />
        <path
           style="fill:#ffffff;stroke-width:0.26458329"
           inkscape:connector-curvature="0"
           d="m 40.570462,168.02342 a 0.41416797,0.41416797 0 0 0 -0.15004,0.12364 0.42165708,0.42165708 0 0 0 -0.08307,0.3136 l 0.292996,2.1598 a 0.42353226,0.42353226 0 0 0 0.341292,0.35868 z"
           id="path1492" />
        <path
           style="fill:#3f3d56;stroke-width:0.26458329"
           inkscape:connector-curvature="0"
           d="M 42.204158,169.76723 42.0773,168.82964 a 1.0116505,1.0116505 0 0 0 -0.321974,-0.61561 l 0.291708,2.14885 a 0.39769707,0.39769707 0 0 0 0.0264,0.10046 1.0785097,1.0785097 0 0 0 0.130722,-0.69611 z"
           id="path1494" />
        <ellipse
           style="fill:#3f3d56;stroke-width:0.26458329"
           cx="17.915464"
           cy="173.98361"
           rx="0.16098697"
           ry="0.45076352"
           transform="rotate(-7.7254888)"
           id="ellipse1496" />
        <ellipse
           style="fill:#3f3d56;stroke-width:0.26458329"
           cx="17.87985"
           cy="172.80905"
           rx="0.16098697"
           ry="0.45076352"
           transform="rotate(-7.7254888)"
           id="ellipse1498" />
        <ellipse
           style="fill:#ff7e00;fill-opacity:1;stroke-width:0.26458329"
           cx="19.031652"
           cy="173.4202"
           rx="0.16098697"
           ry="0.45076352"
           transform="rotate(-7.7254888)"
           id="ellipse1500" />
        <path
           style="fill:#3f3d56;stroke-width:0.26458329"
           inkscape:connector-curvature="0"
           d="m 36.506507,165.55839 a 5.304989,5.304989 0 0 0 -1.052855,0.10238 c -0.390233,0.0779 -0.795276,0.17129 -1.193236,0.293 -0.621409,-0.0303 -1.078612,-0.19125 -1.170697,-0.43917 0.724442,-0.41857 1.608582,-0.68838 2.621512,-0.81975 a 6.2547168,6.2547168 0 0 1 1.271797,-0.0386 0.36878896,0.36878896 0 0 1 0.175154,0.24599 c 0.03027,0.2241 -0.225382,0.46235 -0.651675,0.65618 z"
           id="path1502" />
        <path
           style="fill:#ff7e00;fill-opacity:1;stroke-width:0.26458329"
           inkscape:connector-curvature="0"
           d="m 32.395543,171.82336 -0.49584,-2.06128 a 0.38789296,0.38789296 0 0 0 -0.314246,-0.293 0.43358686,0.43358686 0 0 0 -0.06439,-0.005 0.38802755,0.38802755 0 0 0 -0.09015,0.0109 l -0.191896,0.0464 a 0.95973995,0.95973995 0 0 0 -0.707699,1.15653 l 0.222162,0.92471 a 1.0203412,1.0203412 0 0 0 0.343868,0.55509 0.90442483,0.90442483 0 0 0 0.08758,0.0625 0.95363597,0.95363597 0 0 0 0.732169,0.11849 l 0.191253,-0.0464 a 0.37607459,0.37607459 0 0 0 0.139736,-0.065 0.38593536,0.38593536 0 0 0 0.147464,-0.40376 z"
           id="path1504" />
        <ellipse
           style="fill:#3f3d56;stroke-width:0.26458326"
           cx="-9.6248236"
           cy="173.56702"
           rx="0.16098697"
           ry="0.45076352"
           transform="rotate(-13.530514)"
           id="ellipse1506" />
        <ellipse
           style="fill:#3f3d56;stroke-width:0.26458326"
           cx="-10.296095"
           cy="173.60417"
           rx="0.16098697"
           ry="0.45076352"
           transform="rotate(-13.530514)"
           id="ellipse1508" />
        <path
           style="fill:#ffffff;stroke-width:0.26458329"
           inkscape:connector-curvature="0"
           d="m 32.427097,171.81563 -0.49584,-2.06128 a 0.42061003,0.42061003 0 0 0 -0.340649,-0.31682 l 0.67679,2.81534 a 0.41928092,0.41928092 0 0 0 0.159699,-0.43724 z"
           id="path1510" />
        <path
           style="fill:#ff7e00;fill-opacity:1;stroke-width:0.26458329"
           inkscape:connector-curvature="0"
           d="m 30.643361,170.26951 a 0.41702066,0.41702066 0 0 0 -0.07534,-0.15777 0.94824226,0.94824226 0 0 0 -0.0367,0.56603 l 0.222162,0.92471 a 1.0203412,1.0203412 0 0 0 0.343868,0.55509 z"
           id="path1512" />
      </g>
    </g>
  </g>
</svg>
