<?xml version="1.0" encoding="UTF-8" standalone="no"?>
<!-- Created with Inkscape (http://www.inkscape.org/) -->

<svg
   xmlns:dc="http://purl.org/dc/elements/1.1/"
   xmlns:cc="http://creativecommons.org/ns#"
   xmlns:rdf="http://www.w3.org/1999/02/22-rdf-syntax-ns#"
   xmlns:svg="http://www.w3.org/2000/svg"
   xmlns="http://www.w3.org/2000/svg"
   xmlns:sodipodi="http://sodipodi.sourceforge.net/DTD/sodipodi-0.dtd"
   xmlns:inkscape="http://www.inkscape.org/namespaces/inkscape"
   width="136mm"
   height="136mm"
   viewBox="0 0 136 136"
   version="1.1"
   id="svg8"
   inkscape:version="0.92.4 (5da689c313, 2019-01-14)"
   sodipodi:docname="microchip-solid.svg">
  <defs
     id="defs2" />
  <sodipodi:namedview
     id="base"
     pagecolor="#ffffff"
     bordercolor="#666666"
     borderopacity="1.0"
     inkscape:pageopacity="0.0"
     inkscape:pageshadow="2"
     inkscape:zoom="0.35"
     inkscape:cx="-111.42857"
     inkscape:cy="560"
     inkscape:document-units="mm"
     inkscape:current-layer="layer1"
     showgrid="false"
     inkscape:window-width="2560"
     inkscape:window-height="1017"
     inkscape:window-x="1912"
     inkscape:window-y="-8"
     inkscape:window-maximized="1" />
  <metadata
     id="metadata5">
    <rdf:RDF>
      <cc:Work
         rdf:about="">
        <dc:format>image/svg+xml</dc:format>
        <dc:type
           rdf:resource="http://purl.org/dc/dcmitype/StillImage" />
        <dc:title></dc:title>
      </cc:Work>
    </rdf:RDF>
  </metadata>
  <g
     inkscape:label="Layer 1"
     inkscape:groupmode="layer"
     id="layer1"
     transform="translate(0,-161)">
    <path
       id="path815"
       d="M 42.599998,254.4 H 93.399996 V 203.6 H 42.599998 Z M 118.8,207.83333 h 12.7 c 2.32834,0 4.23334,-1.905 4.23334,-4.23333 0,-2.32833 -1.89495,-4.23333 -4.23334,-4.23333 h -12.7 v -4.23334 C 118.8,185.78031 111.21969,178.2 101.86667,178.2 h -4.233334 v -12.7 c 0,-2.33786 -1.905,-4.23333 -4.23334,-4.23333 -2.33786,0 -4.23333,1.89547 -4.23333,4.23333 v 12.7 h -16.93333 v -12.7 c 0,-2.33786 -1.905,-4.23333 -4.23334,-4.23333 -2.32833,0 -4.233331,1.89547 -4.233331,4.23333 v 12.7 H 46.833332 v -12.7 c 0,-2.33786 -1.905,-4.23333 -4.233334,-4.23333 -2.328333,0 -4.233333,1.89547 -4.233333,4.23333 v 12.7 h -4.233333 c -9.353021,0 -16.933334,7.58031 -16.933334,16.93333 v 4.23334 H 4.4999975 c -2.337858,0 -4.233333,1.905 -4.233333,4.23333 0,2.32833 1.895475,4.23333 4.233333,4.23333 H 17.199998 v 16.93334 H 4.4999975 c -2.337858,0 -4.233333,1.905 -4.233333,4.23333 0,2.32833 1.895475,4.23333 4.233333,4.23333 H 17.199998 v 16.93333 H 4.4999975 c -2.337858,0 -4.233333,1.905 -4.233333,4.23334 0,2.32833 1.895475,4.23333 4.233333,4.23333 H 17.199998 v 4.23333 c 0,9.35302 7.580313,16.93333 16.933334,16.93333 h 4.233333 v 12.7 c 0,2.32834 1.905,4.23334 4.233333,4.23334 2.338388,0 4.233334,-1.89548 4.233334,-4.23334 v -12.7 h 16.933333 v 12.7 c 0,2.33786 1.895471,4.23334 4.233331,4.23334 2.33839,0 4.23334,-1.89548 4.23334,-4.23334 v -12.7 h 16.93333 v 12.7 c 0,2.33786 1.89547,4.23334 4.23333,4.23334 2.33839,0 4.23334,-1.89548 4.23334,-4.23334 v -12.7 h 4.233334 c 9.35302,0 16.93333,-7.58031 16.93333,-16.93333 v -4.23333 h 12.7 c 2.33839,0 4.23334,-1.89547 4.23334,-4.23333 0,-2.33786 -1.89495,-4.23334 -4.23334,-4.23334 h -12.7 v -16.93333 h 12.7 c 2.32834,0 4.23334,-1.905 4.23334,-4.23333 0,-2.32833 -1.89495,-4.23333 -4.23334,-4.23333 h -12.7 z m -16.93333,50.8 c 0,2.33786 -1.894954,4.23333 -4.233334,4.23333 H 38.366665 c -2.328333,0 -4.233333,-1.905 -4.233333,-4.23333 v -59.26666 c 0,-2.32834 1.905,-4.23334 4.233333,-4.23334 h 59.266671 c 2.32833,0 4.233334,1.905 4.233334,4.23334 z"
       inkscape:connector-curvature="0"
       style="fill:#ee7e12;stroke-width:0.26458332;fill-opacity:1" />
  </g>
</svg>
