<?xml version="1.0" encoding="UTF-8" standalone="no"?>
<!-- Created with Inkscape (http://www.inkscape.org/) -->

<svg
   xmlns:dc="http://purl.org/dc/elements/1.1/"
   xmlns:cc="http://creativecommons.org/ns#"
   xmlns:rdf="http://www.w3.org/1999/02/22-rdf-syntax-ns#"
   xmlns:svg="http://www.w3.org/2000/svg"
   xmlns="http://www.w3.org/2000/svg"
   xmlns:sodipodi="http://sodipodi.sourceforge.net/DTD/sodipodi-0.dtd"
   xmlns:inkscape="http://www.inkscape.org/namespaces/inkscape"
   width="74.834999mm"
   height="63.133999mm"
   viewBox="0 0 74.835001 63.133999"
   version="1.1"
   id="svg8"
   inkscape:version="0.92.4 (5da689c313, 2019-01-14)"
   sodipodi:docname="robot.svg">
  <defs
     id="defs2" />
  <sodipodi:namedview
     id="base"
     pagecolor="#ffffff"
     bordercolor="#666666"
     borderopacity="1.0"
     inkscape:pageopacity="0.0"
     inkscape:pageshadow="2"
     inkscape:zoom="2.8"
     inkscape:cx="77.147475"
     inkscape:cy="89.447637"
     inkscape:document-units="mm"
     inkscape:current-layer="layer1"
     showgrid="false"
     units="mm"
     inkscape:window-width="2560"
     inkscape:window-height="1017"
     inkscape:window-x="1912"
     inkscape:window-y="-8"
     inkscape:window-maximized="1" />
  <metadata
     id="metadata5">
    <rdf:RDF>
      <cc:Work
         rdf:about="">
        <dc:format>image/svg+xml</dc:format>
        <dc:type
           rdf:resource="http://purl.org/dc/dcmitype/StillImage" />
        <dc:title></dc:title>
      </cc:Work>
    </rdf:RDF>
  </metadata>
  <g
     inkscape:label="Layer 1"
     inkscape:groupmode="layer"
     id="layer1"
     transform="translate(0,-233.86599)">
    <g
       style="stroke-width:0.45445129"
       id="g889"
       transform="matrix(2.2004557,0,0,2.2004557,-340.4056,25.821825)">
      <circle
         id="circle855"
         r="2.8547664"
         cy="107.53594"
         cx="185.85197"
         style="fill:#3f3d56;fill-opacity:1;stroke-width:0.12024024" />
      <circle
         id="circle857"
         r="0.75125432"
         cy="107.53594"
         cx="185.85197"
         style="fill:#0b0e0e;fill-opacity:1;stroke-width:0.12024024" />
      <path
         id="path859"
         d="m 185.71472,107.55199 c 0.31645,0.25817 0.41289,0.66505 0.35401,1.05794 a 1.8369783,1.8369783 0 0 1 -0.6306,1.10291 c -0.37633,0.33448 -0.83533,0.56049 -1.27822,0.79193 a 9.2969322,9.2969322 0 0 0 -1.1701,0.71029 c -1.42443,1.0353 -2.50056,2.50943 -3.11646,4.15444 -0.61486,1.64224 -0.77983,3.50623 -0.31262,5.20824 0.23116,0.84209 0.6988,1.75065 1.56998,2.06752 0.69444,0.25258 1.64254,0.0899 1.99614,-0.62583 0.37983,-0.76881 -0.1501,-1.63302 -0.83272,-2.01469 -0.88484,-0.49474 -1.94179,-0.13322 -2.73765,0.36758 -0.87619,0.55134 -1.58054,1.34253 -2.49532,1.83668 a 3.1356423,3.1356423 0 0 1 -1.34051,0.39106 3.3573226,3.3573226 0 0 1 -1.2703,-0.19625 4.3026347,4.3026347 0 0 1 -2.07809,-1.61304 c -0.58104,-0.84463 -0.84112,-1.88 -0.88856,-2.89422 -0.10612,-2.26925 0.79031,-4.3922 1.50954,-6.49665 a 19.84894,19.84894 0 0 0 0.86539,-3.3701 17.459596,17.459596 0 0 0 0.19122,-3.48495 c -0.0476,-1.03024 -0.14924,-2.10756 -0.60394,-3.0485 -0.39983,-0.82738 -1.13056,-1.504549 -2.05442,-1.675272 a 2.0492174,2.0492174 0 0 0 -1.23502,0.141864 c -0.13178,0.06012 -0.0174,0.254418 0.11376,0.194608 0.81757,-0.372967 1.7839,-0.0101 2.38777,0.59212 0.70516,0.70322 0.96412,1.74169 1.07911,2.69991 a 16.947491,16.947491 0 0 1 -0.59862,6.76077 c -0.62705,2.12996 -1.61339,4.17104 -1.84099,6.40262 -0.10385,1.01829 -0.0505,2.07099 0.27498,3.04744 a 4.7598721,4.7598721 0 0 0 1.50839,2.22115 c 0.66427,0.53701 1.48146,0.90289 2.34173,0.94365 0.96569,0.0457 1.81253,-0.38476 2.56175,-0.95746 0.80242,-0.61337 1.54071,-1.37018 2.51272,-1.71411 0.44314,-0.15679 0.94786,-0.22994 1.40284,-0.079 a 1.7602114,1.7602114 0 0 1 0.93549,0.75215 c 0.19761,0.32859 0.2705,0.73942 0.0902,1.09241 -0.16955,0.33188 -0.50048,0.52384 -0.85874,0.58954 a 1.666264,1.666264 0 0 1 -1.10614,-0.18795 c -0.39246,-0.22414 -0.67963,-0.60031 -0.88082,-0.99774 -0.4012,-0.79254 -0.536,-1.73596 -0.55646,-2.61562 a 8.6609766,8.6609766 0 0 1 0.32668,-2.54325 8.974209,8.974209 0 0 1 2.71121,-4.32187 7.9603899,7.9603899 0 0 1 1.04983,-0.77297 c 0.40417,-0.24911 0.83558,-0.44817 1.24762,-0.68322 0.40544,-0.23129 0.805,-0.50764 1.0842,-0.88824 a 1.9107905,1.9107905 0 0 0 0.36715,-1.12318 1.2595575,1.2595575 0 0 0 -0.43601,-0.98204 c -0.11147,-0.0909 -0.27185,0.0676 -0.15937,0.15936 z"
         inkscape:connector-curvature="0"
         style="fill:#f6f6f6;fill-opacity:1;stroke-width:0.12024024" />
      <ellipse
         style="opacity:1;fill:#f2f2f2;fill-opacity:1;fill-rule:evenodd;stroke:none;stroke-width:0.24048048;stroke-linecap:square;stroke-linejoin:round;stroke-miterlimit:4;stroke-dasharray:none;stroke-opacity:1;paint-order:stroke fill markers"
         id="ellipse861"
         cx="162.70094"
         cy="101.01021"
         rx="6.4593172"
         ry="6.421381" />
      <ellipse
         style="opacity:1;fill:#f2f2f2;fill-opacity:1;fill-rule:evenodd;stroke:none;stroke-width:0.24048048;stroke-linecap:square;stroke-linejoin:round;stroke-miterlimit:4;stroke-dasharray:none;stroke-opacity:1;paint-order:stroke fill markers"
         id="ellipse863"
         cx="162.67509"
         cy="115.44286"
         rx="6.7575355"
         ry="6.655623" />
      <path
         id="path865"
         d="m 159.12317,121.05913 a 6.5601012,6.5601012 0 0 0 3.34018,1.04704 1.5660345,1.5660345 0 0 1 -0.0714,0.14722 1.8828222,1.8828222 0 0 1 -0.57085,0.6422 1.8754478,1.8754478 0 0 1 -2.95484,-1.53376 v -0.3027 z"
         inkscape:connector-curvature="0"
         style="fill:#3f3d56;stroke-width:0.12024024" />
      <path
         id="path867"
         d="m 166.12873,121.14776 v 0.21407 a 1.8748049,1.8748049 0 0 1 -3.52118,0.89757 1.5659241,1.5659241 0 0 1 -0.0744,-0.15097 c 0.0548,0.002 0.10892,0.002 0.16375,0.002 a 6.5696612,6.5696612 0 0 0 3.4318,-0.96292 z"
         inkscape:connector-curvature="0"
         style="fill:#3f3d56;stroke-width:0.12024024" />
      <path
         id="path869"
         d="m 168.65546,98.510948 c -0.0563,-0.0083 -0.11344,-0.01352 -0.1705,-0.01727 a 6.3078584,6.3078584 0 0 1 0.12543,4.710182 c 0.0571,-0.007 0.11343,-0.0158 0.16976,-0.0263 a 2.3661533,2.3661533 0 0 0 -0.12469,-4.666617 z"
         inkscape:connector-curvature="0"
         style="fill:#3f3d56;fill-opacity:1;stroke-width:0.12024024" />
      <path
         id="path871"
         d="m 156.90891,98.493675 c -0.0571,0.0038 -0.11417,0.009 -0.1705,0.01727 a 2.3661525,2.3661525 0 0 0 -0.1247,4.666615 c 0.0563,0.0105 0.11267,0.0195 0.16977,0.0263 a 6.3078584,6.3078584 0 0 1 0.12543,-4.710182 z"
         inkscape:connector-curvature="0"
         style="fill:#3f3d56;fill-opacity:1;stroke-width:0.12024024" />
      <path
         id="path873"
         d="m 168.65546,98.510948 a 6.4592639,6.4592639 0 1 0 0.50098,2.493672 6.4681293,6.4681293 0 0 0 -0.50098,-2.493672 z m -0.0451,4.692902 a 6.3078584,6.3078584 0 1 1 0.39583,-2.19923 6.3184489,6.3184489 0 0 1 -0.39583,2.19924 z"
         inkscape:connector-curvature="0"
         style="fill:#3f3d56;fill-opacity:1;stroke-width:0.12024024" />
      <path
         id="path875"
         d="m 166.0018,99.539964 h -6.60973 a 1.3144345,1.3144345 0 0 0 0,2.628866 h 6.60973 a 1.3144345,1.3144345 0 0 0 0,-2.628866 z"
         inkscape:connector-curvature="0"
         style="fill:#3f3d56;fill-opacity:1;stroke-width:0.12024024" />
      <path
         id="path877"
         d="m 167.44142,113.83602 h -2.95436 a 0.776155,0.776155 0 0 1 0,-1.55231 h 2.95436 a 0.776155,0.776155 0 0 1 0,1.55231 z"
         inkscape:connector-curvature="0"
         style="fill:#3f3d56;fill-opacity:1;stroke-width:0.12024024" />
      <circle
         id="circle879"
         r="0.3939127"
         cy="113.05986"
         cx="164.68402"
         style="fill:#f2f2f2;stroke-width:0.12024024" />
      <circle
         id="circle881"
         r="0.3939127"
         cy="113.05986"
         cx="165.96423"
         style="fill:#f2f2f2;stroke-width:0.12024024" />
      <circle
         id="circle883"
         r="0.3939127"
         cy="113.05986"
         cx="167.24446"
         style="fill:#6c63ff;stroke-width:0.12024024" />
      <path
         id="path885"
         d="m 162.69693,108.74097 a 6.7597046,6.7597046 0 0 0 -0.30495,13.51239 c 0.0714,0.004 0.14347,0.006 0.21557,0.006 0.03,0.001 0.0593,0.001 0.0894,0.001 a 6.7599487,6.7599487 0 0 0 0,-13.51989 z m 3.4318,12.40676 a 6.5696612,6.5696612 0 0 1 -3.4318,0.96292 c -0.0548,0 -0.10892,-7.4e-4 -0.16375,-0.002 q -0.0349,0 -0.0698,-0.002 a 6.6135733,6.6135733 0 1 1 3.66538,-0.95841 z"
         inkscape:connector-curvature="0"
         style="fill:#3f3d56;fill-opacity:1;stroke-width:0.12024024" />
      <path
         style="fill:#6c63ff;fill-opacity:1;stroke:#6c63ff;stroke-width:0.12024024;stroke-opacity:1"
         inkscape:connector-curvature="0"
         d="m 165.20853,100.27917 h -5.02319 a 0.99892945,0.57523026 0 0 0 0,1.15046 h 5.02319 a 0.99892945,0.57523026 0 0 0 0,-1.15046 z"
         id="path887" />
    </g>
  </g>
</svg>
